<svg xmlns="http://www.w3.org/2000/svg" xmlns:xlink="http://www.w3.org/1999/xlink" width="397.5" height="360.52" viewBox="0 0 397.5 360.52"><defs><style>.a,.d{fill:#999;}.a,.b,.c,.h,.j,.o,.p,.q,.r,.s,.u,.w{stroke:#263238;}.a,.b,.c,.h,.j,.n,.o,.p,.q,.r,.s,.t,.u,.w{stroke-linecap:round;stroke-linejoin:round;}.b,.n,.p,.q,.r,.s,.t{fill:none;}.c,.m{fill:#fff;}.e{clip-path:url(#a);}.f,.i,.n{opacity:0.2;}.g{fill:#263238;}.h{fill:#bfbfbf;}.i,.u{fill:#ff725e;}.j{fill:#f3aca9;}.k{clip-path:url(#b);}.l{opacity:0.4;}.n,.t{stroke:#fff;}.o{fill:#757575;}.p{stroke-dasharray:6.114 6.114;}.q{stroke-dasharray:8.659 8.659;}.r{stroke-dasharray:6.815 6.815;}.s{stroke-width:3px;}.v,.w{fill:#52b487;}</style><clipPath id="a"><path class="a" d="M311,319.53c-.25.22-1,9.84-1,9.84s-5.13,10.13-5.07,25.63S300,449.89,300,449.89H422.75s-8.53-59.52-20.63-89.64c0,0-.37-24.72-7-31.61,0,0,2.88-10.14-3-11.39S311,319.53,311,319.53Z" transform="translate(-300 -316.982)"/></clipPath><clipPath id="b"><path class="a" d="M327.966,152.69s2.13-6.75-2.44-10.09-4.26,16.8-4.26,16.8l-4.36,2.44s-6.29-16.64-3.25-28.82,15.36-20.81,32.36-16.21c22.81,6.16,17.68,24.84,17.68,24.84s-1-5.28-2.08-5-4.7,3.75-22.39-2.34c0,0-2,1.73-1.55,6s-7.14,8.07-8.32,15.18Z" transform="translate(-312.826 -115.554)"/></clipPath></defs><g transform="translate(-38.304 -27.762)"><g transform="translate(177.384 28.262)"><path class="b" d="M222.59,145.73h45V109.59" transform="translate(-196.26 -90.54)"/><rect class="b" width="3.6" height="6.57" transform="translate(63.27 48.62)"/><rect class="b" width="3.6" height="8.65" transform="translate(55.79 46.54)"/><rect class="b" width="3.6" height="12.12" transform="translate(48.31 43.07)"/><rect class="b" width="3.6" height="15.59" transform="translate(40.82 39.6)"/><rect class="b" width="3.6" height="20.49" transform="translate(33.34 34.7)"/><path class="b" d="M265.24,139.39s-28.85-6.15-42.65-24.43" transform="translate(-193.91 -90.54)"/><path class="b" d="M266.23,114.39l-2.8-.77v3.08" transform="translate(-235.74 -90.54)"/><path class="b" d="M253.12,91.65c1.28-.26,2.57-.48,3.88-.65" transform="translate(-216.2 -90.54)"/><path class="b" d="M288.93,165.92c-10.7,5.5-25.5,5.93-25.5,5.93,7.45-5.11,12.57-12.61,15.16-17.07-7.91-6.82-12.79-16.09-12.79-26.32,0-15.8,11.61-29.34,28.12-35" transform="translate(-263.43 -90.54)"/><path class="b" d="M264.17,166.38A53.53,53.53,0,0,1,246,163.24" transform="translate(-216.25 -90.54)"/><path class="b" d="M238.54,145.73c-6.47,10.5-18.66,18.17-33.15,20.14" transform="translate(-150.01 -90.54)"/><path class="b" d="M200.97,128.46a32.09,32.09,0,0,1-.57,6" transform="translate(-107.45 -90.54)"/><path class="b" d="M202.67,90.54c20.23,0,37.39,11,43.33,26.16" transform="translate(-154.75 -90.54)"/></g><g transform="translate(48.554 50.432)"><path class="c" d="M280.25,191.65s19.21,5.66,23.54,14.86,13,34.9,13,34.9,8.12,14.34,8.12,18.67-12,20.39-17.42,24.72-25.65-24.18-25.65-24.18Z" transform="translate(-182.41 -112.71)"/><path class="d" d="M311,319.53c-.25.22-1,9.84-1,9.84s-5.13,10.13-5.07,25.63S300,449.89,300,449.89H422.75s-8.53-59.52-20.63-89.64c0,0-.37-24.72-7-31.61,0,0,2.88-10.14-3-11.39S311,319.53,311,319.53Z" transform="translate(-300 -112.71)"/><g class="e" transform="translate(0 204.272)"><path class="f" d="M300,449.89H422.75s-8.53-59.52-20.63-89.64c0,0-.07-4.7-.7-10.58-5.65,2.72-13.1,6.64-15.18,9.33-3.49,4.5,8.9,11.07,8.9,11.07a10.93,10.93,0,0,1-8.9,3.48c-5.49-.55-27.09-5.48-27.09-5.48s8.07,4.93,7.09,8.43-9.85,14.9-14.67,17.7,9.8-2.8,9.8-2.8-16.62,26.86-26.62,32.23-30.43-11.25-27.5-12.63,14.81-17.55,12.65-20.27c-1.24-1.57-8.59,2.56-16.69,4.62C301.75,421.49,300,449.89,300,449.89Z" transform="translate(-300 -316.982)"/></g><path class="b" d="M311,319.53c-.25.22-1,9.84-1,9.84s-5.13,10.13-5.07,25.63S300,449.89,300,449.89H422.75s-8.53-59.52-20.63-89.64c0,0-.37-24.72-7-31.61,0,0,2.88-10.14-3-11.39S311,319.53,311,319.53Z" transform="translate(-300 -112.71)"/><path class="g" d="M410.271,319.89a29.4,29.4,0,0,1,0,8.64,61.15,61.15,0,0,1-30.59,10.22c-17.66.75-42.84-4-49.75-8v-9.5Z" transform="translate(-317.771 -112.71)"/><path class="h" d="M355.893,325.07s1.5,7.93,0,10.93-15.06,3.82-15.06,3.82l.43-11.29Z" transform="translate(-274.643 -112.71)"/><path class="a" d="M381.75,341.31a79.307,79.307,0,0,1,2.06-12.78l4.19.11s-2.25,7.73-1,12.67" transform="translate(-347 -112.71)"/><path class="i" d="M308.719,237.58l.52,23a186.389,186.389,0,0,0,13.43,16.64c.25-3,.55-6.55.91-10.59,1.67-18.67-4.67-33.67-4.29-34.78Z" transform="translate(-209.829 -112.71)"/><path class="c" d="M403.15,195a131,131,0,0,0-12.13-5c-.52-1.36.72-5.42-11.8-11.91s-30.6-2.43-30.6-2.43l-7,8.66s-24.35,9.69-30,14.58-10.39,119.45-5.69,123.55c13.42,11.7,70.32,13.3,85.75-2.2,3.34-3.34,5.59-27.52,12-63.4,0,0,12.19-28,11.53-43.32" transform="translate(-296.5 -112.71)"/><path class="i" d="M351.07,186.13s-1.34,12,11,20c0,0,5.67-3.63,9.67-4s5.38,1,5.38,1,.84-4.7-1.08-7.79-5.68-.71-11.86,7.79C364.14,203.13,353.69,198,351.07,186.13Z" transform="translate(-305.58 -112.71)"/><path class="i" d="M326.549,198.91s4.87.22,7.31,4.22,3.18,5.5,3.18,5.5,3.92-3.88,1-15.88a38,38,0,0,1-.46,10.38s-2.52-9.28-3.74-9.4S330.189,194.33,326.549,198.91Z" transform="translate(-242.919 -112.71)"/><path class="j" d="M366.33,172.35a17.9,17.9,0,0,0-4.19,16.57l-8.77,14.21-5.4-12.58s-12.51-3.25-16.16-11.77a53.14,53.14,0,0,0,5.78-32.28C335.14,127.66,366.33,172.35,366.33,172.35Z" transform="translate(-275.39 -112.71)"/><path class="j" d="M314.189,155.24c-3.87-28.88,4.78-40.4,27.49-38.78s23.08,27,17.66,37.77c-1.82,3.62-1.23,11.54-12.52,24.2-4.33,4.86-15.7,1.2-23.84-6.82" transform="translate(-252.769 -112.71)"/><path class="b" d="M335.87,148.26s-2.23-3.95-8.32,0" transform="translate(-240.67 -112.71)"/><path class="b" d="M314.13,148.26s3.3-2.73,4.29,0" transform="translate(-209.8 -112.71)"/><path class="g" d="M330.714,154.22c-.26,1,0,1.92.64,2.08s1.32-.51,1.57-1.5,0-1.92-.64-2.08S330.964,153.23,330.714,154.22Z" transform="translate(-240.884 -112.71)"/><path class="g" d="M318.45,154.22c-.26,1,0,1.92.64,2.08s1.32-.51,1.58-1.5,0-1.92-.65-2.08S318.7,153.23,318.45,154.22Z" transform="translate(-216.37 -112.71)"/><path class="b" d="M325.511,150.47c-2.51,3.45-.19,7.8.63,11.16s-4.26,3.15-5.68,2" transform="translate(-223.941 -112.71)"/><path class="d" d="M327.966,152.69s2.13-6.75-2.44-10.09-4.26,16.8-4.26,16.8l-4.36,2.44s-6.29-16.64-3.25-28.82,15.36-20.81,32.36-16.21c22.81,6.16,17.68,24.84,17.68,24.84s-1-5.28-2.08-5-4.7,3.75-22.39-2.34c0,0-2,1.73-1.55,6s-7.14,8.07-8.32,15.18Z" transform="translate(-254.266 -112.71)"/><g class="k" transform="translate(58.56 2.844)"><path class="l" d="M327.966,152.69s2.13-6.75-2.44-10.09-4.26,16.8-4.26,16.8l-4.36,2.44s-6.29-16.64-3.25-28.82,15.36-20.81,32.36-16.21c22.81,6.16,17.68,24.84,17.68,24.84s-1-5.28-2.08-5-4.7,3.75-22.39-2.34c0,0-2,1.73-1.55,6s-7.14,8.07-8.32,15.18Z" transform="translate(-312.826 -115.554)"/></g><path class="b" d="M327.966,152.69s2.13-6.75-2.44-10.09-4.26,16.8-4.26,16.8l-4.36,2.44s-6.29-16.64-3.25-28.82,15.36-20.81,32.36-16.21c22.81,6.16,17.68,24.84,17.68,24.84s-1-5.28-2.08-5-4.7,3.75-22.39-2.34c0,0-2,1.73-1.55,6s-7.14,8.07-8.32,15.18Z" transform="translate(-254.266 -112.71)"/><path class="g" d="M354.372,164.81a9.24,9.24,0,0,1-4.71.48l-1,1.11-.91-1s-5.58.73-8.32,0-5.58,1-7,1c0,0-6.08-7.3-5.48-11.06a32.4,32.4,0,0,1,1-4.87s-1.15,1.05-1.76.85a1,1,0,0,1-.78-.85s-5.91,12-5.78,21.72c0,0,6.76,11.23,15.72,11.87,10.05.71,15.27-3.2,15.27-3.2a21.78,21.78,0,0,0,.87-9.79,9.44,9.44,0,0,1,2.38-1.78,15.248,15.248,0,0,0,.5-4.48Z" transform="translate(-251.262 -112.71)"/><path class="g" d="M358.767,136.68a7.77,7.77,0,0,0,4.12-8.22c-.94-5.82-5.27-7.85-8.38-9.6,0,0-6.34-5.42-18.13-6.09-14.2-.81-28,6.63-24.76,17.6,0,0,20-8.53,24.76,4C336.377,134.34,350.137,142.32,358.767,136.68Z" transform="translate(-251.387 -112.71)"/><path class="j" d="M359.654,146.5s-4.46-8.57-7.44-5.73-2.16,7-1.15,11,1.36,3.32,3.25,5.14,3.9,3.67,4.6,1.69a7.15,7.15,0,0,0,.36-3.56" transform="translate(-287.044 -112.71)"/><path class="m" d="M324.91,171.38c8,.2,10.62-1,10.62-1a.9.9,0,0,0,.89.39l-1.32,2.73s-1.32.82-4.74.82C327.47,174.32,324.91,171.38,324.91,171.38Z" transform="translate(-238.58 -112.71)"/><path class="n" d="M359.911,134.55s3.25-6.5-5.27-10.45-22.32-2.44-25.67,2" transform="translate(-266.741 -112.71)"/><path class="n" d="M335.052,135.76s9.36-.4,2.41-9.53-21.67-12-21.67-12" transform="translate(-233.072 -112.71)"/><path class="b" d="M350.14,184.33a28.09,28.09,0,0,0,13.47,18.8s6.46-9.62,9.86-9.4c1.66.1,4.19,5.18,4.19,5.18" transform="translate(-305.05 -112.71)"/><path class="b" d="M339.4,190c1.16,4.6.35,13.74.35,13.74s-2.81-9.12-3.93-10c-2-1.62-8.22,6.29-8.22,6.29" transform="translate(-244.885 -112.71)"/><path class="b" d="M341.26,203.13l4.74,3.11s-5.34,5.95-4.71,11.36S340,234.92,340,234.92" transform="translate(-263.25 -112.71)"/><path class="j" d="M258.056,257.81a36.37,36.37,0,0,0-3.72,20.61s7,9.7,12.37,11.15c13.06,3.52,20.93-25.51,36.62-64.49,1-2.5-7.91-15.71-7.91-15.71l-25.91,40.31a15.17,15.17,0,0,0-11.45,8.13Z" transform="translate(-134.756 -112.71)"/><path class="j" d="M233.41,212.3l6.65-9s10-5.74,11.11-2.31c1.63,5.14,9.83,6.66,9.83,6.66-.72,2.63-8.73,14.35-13.27,17s-5,3.43-6.87,4c-4.75,1.27-5.88-2.14-5.88-2.14" transform="translate(-71.66 -112.71)"/><path class="o" d="M237.875,251.49s36.53-33.94-8.84-46.2-33.44,32.64-33.44,32.64l3,.52s-11.89-40.18,28.9-29.7,8.69,40.69,8.69,40.69Z" transform="translate(-23.205 -112.71)"/><path class="j" d="M240.234,218.44c7.67-3.74,5-10.59,12.46-14.91,2-1.16,8.49-.45,10.54-1.89,3.08-2.15,2-3.63,1.92-3.89-.1-.59-2.26,1.33-9.62-.75-2.94-.83-11,1.69-13.52,3.89-5.92,5.14-11.07,11.2-10.51,15.94.32,2.73,3.36,3.83,3.36,3.83" transform="translate(-74.114 -112.71)"/><path class="j" d="M251.54,206.84s-6.43-1.57-8.48-1.55c-2.82,0-3.71.42-4.38,1.62a3.13,3.13,0,0,0,.12,2.68,4.73,4.73,0,0,0-2.31,2.39,4.44,4.44,0,0,0,.65,3.29,6.7,6.7,0,0,0-2.93,1.78,2.21,2.21,0,0,0-.16,3s-3.62,2.48-1.61,4,7.5,3.71,10,3.47S260.61,208.23,251.54,206.84Z" transform="translate(-63.42 -112.71)"/><path class="b" d="M234.37,209.59s10.22,3.13,13,3.06" transform="translate(-58.99 -112.71)"/><path class="b" d="M238.51,215.27s8.7,3.13,10.49,3.48" transform="translate(-64.76 -112.71)"/><path class="b" d="M242.54,220a80.2,80.2,0,0,0,9.58,3.32" transform="translate(-71.91 -112.71)"/><path class="o" d="M269.25,246.32s-11.2-19.16-39-15.73L207.4,278.15s14.34,27.2,54.91,20.76Z" transform="translate(-53.9 -112.71)"/><path class="o" d="M177.43,284.35s24.45-18.14,41,.34l-7.52,5.63s-7.71-16.21-33.75,3.8" transform="translate(27.16 -112.71)"/><path class="o" d="M244.27,246.52s-26.37,2.6-34.54-14.63" transform="translate(-31.25 -112.71)"/><path class="o" d="M190.042,286.31s-10.38-7.29-19.58-1.92a14.31,14.31,0,0,0-7,15S177.272,300.47,190.042,286.31Z" transform="translate(69.478 -112.71)"/><path class="b" d="M189.85,286.35s-16.14,4.31-21.54,13.06" transform="translate(64.59 -112.71)"/><path class="o" d="M214.73,234.25l1.87-7.79s10.41-.28,14,5.71l-4.64,6.14" transform="translate(-22.58 -112.71)"/><path class="b" d="M223.32,235.88a17,17,0,0,0,6.68,2.05" transform="translate(-30.57 -112.71)"/><path class="b" d="M221.577,285.9s-2.35,3.19.6,7.25" transform="translate(-20.117 -112.71)"/><path class="i" d="M323.35,246.66s9.67,33.34,31,50c9.74,7.61,54.32-4.67,54.32-4.67l-2.89-17.28-14.6-6.92s-25.84-40.45-39.84-44.46S323.35,246.66,323.35,246.66Z" transform="translate(-309.27 -112.71)"/><path class="c" d="M375.8,199.75c10.29.29,37.34,49.86,37.34,49.86,7.33,2.78,3.84,9.2,3.84,9.2s-17.19,21.8-20.44,23.66c-8,4.6-10.89-3.45-10.89-3.45s-33.78-30.69-31.48-55.68,10-24.43,10-24.43" transform="translate(-349.122 -112.71)"/><path class="j" d="M252.745,256.87l10.3,11.13c21.89-2.13,61.8,14.45,73.34,8.42,6.71-3.51,22.82.1,25.22,1.31s7.47,7.49,5.59,8.3-6-2.94-8.34-2.6a37,37,0,0,1-6.47-.06s10.15,9.63,12.42,10.04,13.8,5.33,9.62,6.19c-5.85,1.2-8.08.6-8.08.6s-5.28,3.75-9.21,4.15c-2,.21-13.1-1.79-13.1-1.79l-10.14-9.67s-67.48,3.51-79.35-1.48c-15.48-6.5-20.44-11.87-20.44-11.87S240.655,260.54,252.745,256.87Z" transform="translate(-186.685 -112.71)"/><path class="b" d="M358.174,338.51c.23-.05,5.22,29.49-1.84,35.74,0,0-4.08,14.11-3.32,23.81s-4.54,29.44-4.54,29.44l-3.54,22.39" transform="translate(-282.284 -112.71)"/><path class="b" d="M346.29,339.38s2.5,14.62,1.5,19.87,1.17,10.64,4.21,10.82" transform="translate(-275.54 -112.71)"/><path class="b" d="M410.63,334.92s-4.54,24.35-12,26.36" transform="translate(-386.51 -112.71)"/><path class="b" d="M415.491,331.56a168.107,168.107,0,0,0-2.84,37c.59,21.44-4.26,64.44-4.71,69.69a89,89,0,0,0,0,11.64" transform="translate(-400.491 -112.71)"/><path class="b" d="M337.75,366.67c1.92.83,25.42,7.83,29.92,13.33" transform="translate(-282.67 -112.71)"/><path class="b" d="M376.11,380.56S359.88,400.25,352,402.25" transform="translate(-305.36 -112.71)"/><path class="b" d="M315.61,382.5s24.93,24.5,29.32,21.72" transform="translate(-237.79 -112.71)"/><path class="b" d="M343.95,411s6.88,27.2,6.42,30.22,2.34,8.67,2.34,8.67" transform="translate(-273.91 -112.71)"/><path class="b" d="M347.624,304.37s-1.51,7.84,0,12.61-.14,12-2.21,12.38" transform="translate(-270.874 -112.71)"/><path class="b" d="M296,249.68s-8,8.64-8,15.35" transform="translate(-161.25 -112.71)"/><path class="b" d="M185.16,304.37s.66,2.13,1.59,5.78" transform="translate(50.84 -112.71)"/><path class="p" d="M181.91,316.09c.59,2.67,1.22,5.7,1.82,9" transform="translate(57.11 -112.71)"/><path class="b" d="M180.5,328.1c.31,1.91.62,3.89.89,5.94" transform="translate(60.86 -112.71)"/><path class="b" d="M170.13,299.16s1.23,1.91,3,5.18" transform="translate(79.49 -112.71)"/><path class="q" d="M161.35,312.07a124.405,124.405,0,0,1,4.87,12" transform="translate(95.18 -112.71)"/><path class="b" d="M158.48,328.23q.84,2.85,1.52,5.81" transform="translate(104.27 -112.71)"/><path class="b" d="M158.01,290.92a22.351,22.351,0,0,1,5.22,2.92" transform="translate(101.51 -112.71)"/><path class="r" d="M145.41,298a63.183,63.183,0,0,1,7.2,7.24" transform="translate(124.73 -112.71)"/><path class="b" d="M139.99,307.91a52.9,52.9,0,0,1,3.3,5" transform="translate(139.47 -112.71)"/><path class="b" d="M379.25,249.61c-7.52,1.14-18.52,14.89-20.52,20.14" transform="translate(-315.23 -112.71)"/><path class="b" d="M379.25,231.89s18.05,11,36.05,12.11" transform="translate(-371.8 -112.71)"/><path class="b" d="M307.25,244s-9.28-1.88-14,5.68A50.269,50.269,0,0,0,287,265" transform="translate(-171.5 -112.71)"/><path class="b" d="M309.75,227.46s-4.49,9.85-9.75,13.94" transform="translate(-187 -112.71)"/><path class="b" d="M346.45,256a82.556,82.556,0,0,0-.38,12" transform="translate(-269.7 -112.71)"/><path class="b" d="M381.75,302S362,324.23,331.5,318.24" transform="translate(-290.5 -112.71)"/><path class="g" d="M345.431,209a1.12,1.12,0,1,0,1.12-1.17,1.15,1.15,0,0,0-1.12,1.17Z" transform="translate(-270.351 -112.71)"/><path class="g" d="M346.821,238.45a1.12,1.12,0,1,0,1.12-1.17,1.14,1.14,0,0,0-1.12,1.17Z" transform="translate(-273.131 -112.71)"/></g><g transform="translate(7.304 387.612)"><line class="b" x1="396.5" y1="0.112" transform="translate(31.5 -0.112)"/></g><g transform="translate(51.834 196.486)"><path class="s" d="M140.175,392.45s-16.15-5.67-5.63-37.58-2.94-31.21-8.94-47.35,2.86-27.07,2.86-27.07" transform="translate(155.775 -258.764)"/><path class="g" d="M128.5,384.56h47s-6.34,47.76-8.17,61.58c-.33,2.51-2.33,3.75-4.75,3.75H97.42c-2.42,0-4.42-1.24-4.75-3.75-1.83-13.82-8.17-61.58-8.17-61.58Z" transform="translate(159.47 -258.764)"/><path class="g" d="M177.23,380.56H82.75a2.23,2.23,0,0,0-2.23,2.23v3.53a2.23,2.23,0,0,0,2.23,2.23h94.48a2.24,2.24,0,0,0,2.24-2.24v-3.53a2.24,2.24,0,0,0-2.24-2.24Z" transform="translate(159.48 -258.764)"/><line class="t" x1="47.67" transform="translate(282.29 129.796)"/><line class="t" x1="3.67" transform="translate(272.62 129.796)"/><line class="t" x2="6.67" transform="translate(250.62 129.796)"/><line class="t" x1="18.67" transform="translate(307.62 145.456)"/><line class="t" x1="5" transform="translate(291.96 145.456)"/><line class="t" x2="18" transform="translate(251.96 145.456)"/><line class="t" x2="3.33" transform="translate(253.96 158.456)"/><line class="t" x2="7" transform="translate(307.62 158.456)"/><line class="t" x1="11.5" transform="translate(262.96 171.126)"/><line class="t" x2="18" transform="translate(301.29 171.126)"/><line class="t" x1="6" transform="translate(316.96 182.456)"/><line class="t" x1="35" transform="translate(272.62 182.456)"/><line class="t" x2="5.34" transform="translate(255.62 182.456)"/><path class="u" d="M112.83,415.22A17.17,17.17,0,1,0,130,398.06a17.17,17.17,0,0,0-17.167,17.16Z" transform="translate(159.47 -258.764)"/><path class="c" d="M128.66,407.32v-1.15h2.68v1.15c2.32.36,3.5,1.68,3.5,3.78v.49h-3.09V411c0-1.11-.59-1.53-1.63-1.53s-1.63.42-1.63,1.53.59,1.87,2.79,3.18c2.67,1.59,3.59,2.8,3.59,4.57,0,2.1-1.21,3.45-3.53,3.8v1.13h-2.68V422.5c-2.34-.35-3.53-1.7-3.53-3.8v-1.06h3.09v1.22c0,1.1.65,1.5,1.69,1.5s1.7-.4,1.7-1.5-.6-1.9-2.8-3.19c-2.67-1.56-3.59-2.8-3.59-4.57C125.22,409,126.38,407.7,128.66,407.32Z" transform="translate(159.47 -258.764)"/><path class="b" d="M115.75,415.22A14.25,14.25,0,1,0,130,401a14.25,14.25,0,0,0-14.25,14.22Z" transform="translate(159.47 -258.764)"/><path class="s" d="M161.65,350.72s-3.43-17.77-17.79-19.16-16-12.64-16-12.64" transform="translate(129.96 -258.764)"/><path class="s" d="M100.447,319.91s3.49-1.68,16.43-9.56,12.44-20.44,12.44-20.44" transform="translate(189.702 -258.764)"/><path class="s" d="M103,366.67s25.33-1,29.09-21.78" transform="translate(184.38 -258.764)"/><path class="v" d="M148.1,271.57a11.42,11.42,0,1,1-9.95-12.72,11.42,11.42,0,0,1,9.95,12.72Z" transform="translate(145.942 -258.764)"/><path class="b" d="M125.428,271.57a11.42,11.42,0,1,0,9.95-12.72,11.42,11.42,0,0,0-9.95,12.72Z" transform="translate(145.941 -258.764)"/><path class="b" d="M127.619,271.3a9.22,9.22,0,1,0,8-10.27,9.22,9.22,0,0,0-8,10.27Z" transform="translate(145.931 -258.764)"/><path class="m" d="M135.39,265.6a2,2,0,0,1,1.36-.67l.09-.76,1.32.16-.1.76a2,2,0,0,1,1.19,1,3,3,0,0,1,.23,1.74v.32l-1.52-.18.05-.43a1.12,1.12,0,0,0-.11-.79.74.74,0,0,0-.57-.31.71.71,0,0,0-.62.17,1.13,1.13,0,0,0-.3.74,1.75,1.75,0,0,0,.08.83,3,3,0,0,0,.37.68c.15.2.38.45.66.76a7.69,7.69,0,0,1,.82.93,3.27,3.27,0,0,1,.49,1,3.11,3.11,0,0,1,.09,1.31,3,3,0,0,1-.65,1.64,2,2,0,0,1-1.39.66l-.09.74-1.32-.16.1-.74a2,2,0,0,1-1.2-1,2.91,2.91,0,0,1-.23-1.74l.08-.7,1.52.18-.1.8c-.08.66.16,1,.71,1.1s.87-.23.95-.89a1.81,1.81,0,0,0-.08-.84,2.62,2.62,0,0,0-.37-.68,8.407,8.407,0,0,0-.66-.75,8.657,8.657,0,0,1-.82-.94,3.261,3.261,0,0,1-.48-1,3.38,3.38,0,0,1,.54-2.92Z" transform="translate(145.854 -258.764)"/><path class="v" d="M89.527,280.64a11.42,11.42,0,1,0,12.86-9.78A11.42,11.42,0,0,0,89.527,280.64Z" transform="translate(217.783 -258.764)"/><path class="b" d="M89.527,280.64a11.42,11.42,0,1,0,12.86-9.78A11.42,11.42,0,0,0,89.527,280.64Z" transform="translate(217.783 -258.764)"/><path class="b" d="M91.718,280.93a9.22,9.22,0,1,0,3.551-6.128A9.22,9.22,0,0,0,91.718,280.93Z" transform="translate(217.752 -258.764)"/><path class="m" d="M98.36,278.07a2,2,0,0,1,1.15-1l-.11-.76,1.31-.18.11.76a2,2,0,0,1,1.39.64,3,3,0,0,1,.67,1.62v.32l-1.52.2-.05-.42a1.16,1.16,0,0,0-.31-.73.86.86,0,0,0-1.19.16,1.13,1.13,0,0,0-.1.79,1.67,1.67,0,0,0,.29.78,2.62,2.62,0,0,0,.53.57c.2.15.47.34.83.56a8.64,8.64,0,0,1,1,.7,3.1,3.1,0,0,1,.72.83,2.94,2.94,0,0,1,.42,1.24,2.88,2.88,0,0,1-.21,1.75,2,2,0,0,1-1.18,1l.1.75-1.31.17-.1-.74a2,2,0,0,1-1.41-.64,2.9,2.9,0,0,1-.66-1.63l-.1-.69,1.52-.21.11.8c.08.66.41,1,1,.88s.78-.45.69-1.11a1.67,1.67,0,0,0-.29-.78,2.62,2.62,0,0,0-.53-.57c-.2-.15-.47-.34-.83-.56a8.7,8.7,0,0,1-1-.69,3.32,3.32,0,0,1-.72-.84,3.48,3.48,0,0,1-.22-3Z" transform="translate(217.798 -258.765)"/><path class="v" d="M88.732,335.26a11.41,11.41,0,1,0,3.972-7.789A11.42,11.42,0,0,0,88.732,335.26Z" transform="translate(219.238 -258.764)"/><path class="b" d="M88.732,335.26a11.41,11.41,0,1,0,3.972-7.789A11.42,11.42,0,0,0,88.732,335.26Z" transform="translate(219.238 -258.764)"/><path class="b" d="M90.933,335.43a9.22,9.22,0,1,0,9.93-8.43A9.22,9.22,0,0,0,90.933,335.43Z" transform="translate(219.227 -258.764)"/><path class="m" d="M97.84,332a2,2,0,0,1,1.2-.93l-.06-.76,1.32-.11.06.76a2,2,0,0,1,1.35.71,3,3,0,0,1,.58,1.66v.32l-1.52.12v-.42a1.13,1.13,0,0,0-.26-.75.86.86,0,0,0-1.2.09,1.15,1.15,0,0,0-.15.79,1.8,1.8,0,0,0,.25.79,2.66,2.66,0,0,0,.5.6,8,8,0,0,0,.8.61,9.707,9.707,0,0,1,1,.75,3.351,3.351,0,0,1,.67.87,3.09,3.09,0,0,1,.35,1.27,2.92,2.92,0,0,1-.31,1.73,2,2,0,0,1-1.23.92l.06.75-1.32.11-.06-.75a2,2,0,0,1-1.37-.72,3,3,0,0,1-.57-1.66l-.06-.7,1.53-.13.06.81c0,.67.36,1,.91.93s.81-.4.76-1.06a1.84,1.84,0,0,0-.25-.8,2.661,2.661,0,0,0-.5-.6c-.19-.16-.45-.36-.8-.6a8.45,8.45,0,0,1-1-.76,3.37,3.37,0,0,1-.68-.87,3.16,3.16,0,0,1-.35-1.26,2.84,2.84,0,0,1,.29-1.71Z" transform="translate(219.195 -258.764)"/><path class="v" d="M157.345,315.64a11.42,11.42,0,1,0,5.56-15.16A11.42,11.42,0,0,0,157.345,315.64Z" transform="translate(84.055 -258.764)"/><path class="b" d="M157.345,315.64a11.42,11.42,0,1,0,5.56-15.16A11.42,11.42,0,0,0,157.345,315.64Z" transform="translate(84.055 -258.764)"/><path class="b" d="M159.356,314.72a9.21,9.21,0,1,0-.3-7.057,9.22,9.22,0,0,0,.3,7.057Z" transform="translate(84.034 -258.764)"/><path class="m" d="M167.78,306.06a2,2,0,0,1,1.5-.22l.32-.69,1.2.56-.32.69a2,2,0,0,1,.83,1.28,3,3,0,0,1-.31,1.73l-.14.29-1.38-.64.17-.39a1.16,1.16,0,0,0,.14-.79.72.72,0,0,0-.44-.47.75.75,0,0,0-.65,0,1.19,1.19,0,0,0-.51.61,1.77,1.77,0,0,0-.18.82,2.69,2.69,0,0,0,.14.76c.09.24.22.55.4.92a9.5,9.5,0,0,1,.49,1.14,3.44,3.44,0,0,1,.16,1.1,3.15,3.15,0,0,1-.31,1.27,3,3,0,0,1-1.13,1.36,2,2,0,0,1-1.52.2l-.32.68-1.2-.56L165,315a2,2,0,0,1-.84-1.29,3,3,0,0,1,.31-1.74l.3-.64,1.39.65-.34.73c-.28.6-.17,1,.34,1.26s.9,0,1.18-.56a1.82,1.82,0,0,0,.17-.81,2.44,2.44,0,0,0-.14-.77,8,8,0,0,0-.4-.92,8.286,8.286,0,0,1-.49-1.14,3.13,3.13,0,0,1-.15-1.09,2.92,2.92,0,0,1,.31-1.27A3,3,0,0,1,167.78,306.06Z" transform="translate(84.001 -258.764)"/><path class="c" d="M172.8,320.84c0,.71-10.65-7-21-2.09,0,0,10.82,9.83,21.29,3.72s9-21.1,9-21.1S171.959,308.44,172.8,320.84Z" transform="translate(85.511 -258.764)"/><path class="c" d="M134.99,281.87c-.34.62-5.14-11.67-16.54-13.17,0,0,3.76,14.13,15.87,14.67s19-12.85,19-12.85S141.02,271,134.99,281.87Z" transform="translate(147.7 -258.764)"/><path class="c" d="M96.51,294.76c-.44.56-3.24-12.34-14.25-15.62,0,0,1.48,14.55,13.34,17s20.78-9.69,20.78-9.69S104.18,285,96.51,294.76Z" transform="translate(220.83 -258.764)"/><path class="c" d="M94.833,349.2c-.53.47-1.08-12.72-11.37-17.83,0,0-1,14.59,10.24,19s22.13-6,22.13-6S104.053,340.86,94.833,349.2Z" transform="translate(220.197 -258.764)"/><path class="g" d="M248.5,384.56h47s-6.34,47.76-8.17,61.58c-.33,2.51-2.33,3.75-4.75,3.75H217.42c-2.42,0-4.42-1.24-4.75-3.75-1.84-13.82-8.17-61.58-8.17-61.58Z" transform="translate(-80.53 -258.764)"/><path class="g" d="M297.24,380.56H202.76a2.24,2.24,0,0,0-2.24,2.24v3.53a2.23,2.23,0,0,0,2.23,2.23h94.49a2.24,2.24,0,0,0,2.24-2.24v-3.53a2.23,2.23,0,0,0-2.24-2.23Z" transform="translate(-80.53 -258.764)"/><line class="t" x1="47.67" transform="translate(162.29 129.796)"/><line class="t" x1="3.67" transform="translate(152.62 129.796)"/><line class="t" x2="6.67" transform="translate(130.62 129.796)"/><line class="t" x1="18.67" transform="translate(187.62 145.456)"/><line class="t" x1="5" transform="translate(171.96 145.456)"/><line class="t" x2="18" transform="translate(131.96 145.456)"/><line class="t" x2="3.33" transform="translate(133.96 158.456)"/><line class="t" x2="7" transform="translate(187.62 158.456)"/><line class="t" x1="11.5" transform="translate(142.96 171.126)"/><line class="t" x2="18" transform="translate(181.29 171.126)"/><line class="t" x1="6" transform="translate(196.96 182.456)"/><line class="t" x1="35" transform="translate(152.62 182.456)"/><line class="t" x2="5.34" transform="translate(135.62 182.456)"/><path class="u" d="M232.83,415.22A17.17,17.17,0,1,0,250,398.06a17.17,17.17,0,0,0-17.167,17.16Z" transform="translate(-80.53 -258.764)"/><path class="b" d="M235.75,415.22A14.25,14.25,0,1,0,250,401a14.25,14.25,0,0,0-14.25,14.22Z" transform="translate(-80.53 -258.764)"/><path class="c" d="M250,407.17l4.2,4.16V408.5h1.33v4.15l2.28,2.26h-2v6.87H244.19v-6.87h-2Z" transform="translate(-80.53 -258.764)"/><path class="s" d="M227.873,389.5s-6-11.5,8.38-21.5,17.5-20.36,15.19-28.18" transform="translate(-59.293 -258.764)"/><path class="s" d="M275.02,373.55s1.68-7.49-11.47-12.77-15.11-21-15.11-21" transform="translate(-104.06 -258.764)"/><path class="w" d="M222.064,327.26c-2.11,0-1.74,13.24,8,15.74,0,0,4.74-1.49,5.49-7.87a9.48,9.48,0,0,0-3.71-9.18,30.419,30.419,0,0,1-2.47,6S226.064,327.28,222.064,327.26Z" transform="translate(-37.234 -258.764)"/><path class="c" d="M225.871,331.94s2.69,2.24.74,6.31" transform="translate(-33.721 -258.764)"/><path class="w" d="M278.6,343s7-6.37,4.9-11.06a15.33,15.33,0,0,0-6.63-6.87s-1.5,2.91-2.37,4.3l-3.59-2.11S263.569,341.5,278.6,343Z" transform="translate(-133.539 -258.764)"/><path class="c" d="M279.043,329.37s-4.38,7,1.12,10.45" transform="translate(-138.083 -258.764)"/><path class="s" d="M249.776,364.59s6.77-17,1.16-36.06" transform="translate(-83.466 -258.764)"/><path class="w" d="M255.385,328.64s-9-2.89-9-8a15.31,15.31,0,0,1,3.17-9s2.58,2,3.95,2.93l2.39-3.41S268.435,321,255.385,328.64Z" transform="translate(-88.235 -258.764)"/><path class="c" d="M249.9,314.54s6.89,4.57,3.31,10" transform="translate(-84.669 -258.764)"/><path class="g" d="M368.5,384.56h47s-6.33,47.76-8.17,61.58c-.33,2.51-2.33,3.75-4.75,3.75H337.42c-2.42,0-4.42-1.24-4.75-3.75-1.84-13.82-8.17-61.58-8.17-61.58Z" transform="translate(-320.53 -258.764)"/><path class="g" d="M417.23,380.56H322.75a2.23,2.23,0,0,0-2.23,2.23v3.53a2.23,2.23,0,0,0,2.23,2.23h94.48a2.24,2.24,0,0,0,2.24-2.24v-3.53A2.23,2.23,0,0,0,417.23,380.56Z" transform="translate(-320.52 -258.764)"/><line class="t" x1="47.67" transform="translate(42.29 129.796)"/><line class="t" x1="3.67" transform="translate(32.62 129.796)"/><line class="t" x2="6.67" transform="translate(10.62 129.796)"/><line class="t" x1="18.67" transform="translate(67.62 145.456)"/><line class="t" x1="5" transform="translate(51.96 145.456)"/><line class="t" x2="18" transform="translate(11.96 145.456)"/><line class="t" x2="3.33" transform="translate(13.96 158.456)"/><line class="t" x2="7" transform="translate(67.62 158.456)"/><line class="t" x1="11.5" transform="translate(22.96 171.126)"/><line class="t" x2="18" transform="translate(61.29 171.126)"/><line class="t" x1="6" transform="translate(76.96 182.456)"/><line class="t" x1="35" transform="translate(32.62 182.456)"/><line class="t" x2="5.34" transform="translate(15.62 182.456)"/><path class="u" d="M352.83,415.22A17.17,17.17,0,1,0,370,398.06a17.17,17.17,0,0,0-17.167,17.16Z" transform="translate(-320.53 -258.764)"/><path class="c" d="M363.44,413.34v6s1.26,2.1,6.56,2.1,6.56-2.1,6.56-2.1v-6" transform="translate(-320.53 -258.764)"/><path class="c" d="M370,409.01l-9.1,3.38,9.1,3.38,9.1-3.38Z" transform="translate(-320.53 -258.764)"/><path class="b" d="M373.81,412.39,370,414.36v9.07" transform="translate(-324.34 -258.764)"/><path class="b" d="M355.75,415.22A14.25,14.25,0,1,0,370,401a14.25,14.25,0,0,0-14.25,14.22Z" transform="translate(-320.53 -258.764)"/><path class="s" d="M367.978,393.33s4.55-11.66,0-26.66" transform="translate(-318.508 -258.764)"/><path class="w" d="M367.16,354s-14.25,9.67,2,19.33C369.16,373.33,385.31,363.67,367.16,354Z" transform="translate(-317.69 -258.764)"/><path class="b" d="M369.445,354s-2.45,3.67,0,7a10,10,0,0,1,1.43,7.55" transform="translate(-319.975 -258.764)"/></g></g></svg>